<?xml version="1.0" standalone="no"?><!DOCTYPE svg PUBLIC "-//W3C//DTD SVG 1.1//EN" "http://www.w3.org/Graphics/SVG/1.1/DTD/svg11.dtd"><svg t="1715675576535" class="icon" viewBox="0 0 1025 1024" version="1.1" xmlns="http://www.w3.org/2000/svg" p-id="12381" width="256.25" height="256" xmlns:xlink="http://www.w3.org/1999/xlink"><path d="M1019.520374 56.394706L966.393742 3.257862c-2.001695-2.001695-4.503815-2.87999-7.1387-2.879991s-5.137004 1.000848-7.148912 2.879991L856.749851 98.61414C814.520204 69.916363 765.396963 55.638964 716.283935 55.638964c-64.156382 0-128.312765 24.428855-177.30324 73.429543L411.280694 256.758295c-3.880838 3.880838-3.880838 10.274008 0 14.154847L751.74254 611.364776c2.001695 2.001695 4.514028 2.890203 7.1387 2.890203 2.512332 0 5.137004-1.000848 7.1387-2.890203l127.689788-127.689788c86.338436-86.460989 96.489892-220.166077 30.454367-317.646604l95.356279-95.366491c3.880838-3.993178 3.880838-10.386348 0-14.267187z m-424.533057 498.585577c-3.880838-3.880838-10.274008-3.880838-14.154847 0l-83.458446 83.458446-113.15707-113.146858 83.580998-83.580999c3.891051-3.891051 3.891051-10.284221 0-14.165059l-45.610061-45.610061c-3.880838-3.891051-10.274008-3.891051-14.154846 0l-83.580999 83.580998-53.882374-53.882374c-2.001695-2.001695-4.514028-2.87999-7.1387-2.87999-2.512332 0-5.137004 1.000848-7.138699 2.87999L128.725037 539.313952C42.386601 625.652388 32.235145 759.480028 98.27067 856.970768L2.914392 952.33726c-3.880838 3.880838-3.880838 10.274008 0 14.154846l53.136844 53.126632c2.001695 2.001695 4.514028 2.87999 7.1387 2.87999 2.634885 0 5.137004-1.000848 7.1387-2.87999l95.366491-95.356279c42.219434 28.697777 91.352888 42.985389 140.465916 42.985389 64.156382 0 128.312765-24.439068 177.30324-73.429543l127.689789-127.689788c3.880838-3.891051 3.880838-10.274008 0-14.154847l-53.882374-53.882374 83.580998-83.580998c3.880838-3.880838 3.880838-10.274008 0-14.154847l-45.865379-45.375168z m0 0" fill="currentColor" p-id="12382"></path></svg>