<svg t="1727335718925" class="icon" viewBox="0 0 1038 1024" version="1.1" xmlns="http://www.w3.org/2000/svg" p-id="5453" width="256" height="256"><path d="M1019.15857 756.92299h-40.212137a149.380015 149.380015 0 0 0-14.11882-34.116468l28.358109-28.358109a18.937531 18.937531 0 0 0 0-26.792028l-30.815651-30.815652a18.961624 18.961624 0 0 0-26.767935 0l-28.35811 28.358109a148.753582 148.753582 0 0 0-34.020093-14.094727v-39.947107a19.009812 19.009812 0 0 0-18.937531-18.937531H810.749356a18.985718 18.985718 0 0 0-18.937531 18.937531v40.091669a148.488553 148.488553 0 0 0-34.044187 14.094727l-28.334016-28.35811a18.985718 18.985718 0 0 0-26.792028 0l-30.815652 30.815652a18.985718 18.985718 0 0 0 0 26.792028l28.358109 28.334016a148.488553 148.488553 0 0 0-14.094727 34.044187h-39.995294a18.961624 18.961624 0 0 0-18.937531 18.841157v43.537046a18.985718 18.985718 0 0 0 18.937531 18.937531h40.067575a149.910073 149.910073 0 0 0 14.118821 34.020094l-28.35811 28.358109a18.961624 18.961624 0 0 0 0 26.767935l30.815652 30.815651a18.937531 18.937531 0 0 0 26.792028 0L757.864012 930.011059a149.645044 149.645044 0 0 0 34.044187 14.11882v39.995295a18.961624 18.961624 0 0 0 18.937531 18.913437h43.537046a18.961624 18.961624 0 0 0 18.913437-18.913437v-40.115762a150.681066 150.681066 0 0 0 34.044188-13.998353l28.334015 28.334015a18.937531 18.937531 0 0 0 26.792029 0l30.815651-30.815651a18.961624 18.961624 0 0 0 0-26.767935l-28.358109-28.358109a149.380015 149.380015 0 0 0 14.118821-34.020094H1019.15857a18.985718 18.985718 0 0 0 18.913437-18.937531V775.812334a18.961624 18.961624 0 0 0-18.913437-18.889344z m-186.484083 123.985412a83.291405 83.291405 0 1 1 83.291405-83.291405 83.291405 83.291405 0 0 1-83.411873 83.291405z" fill="currentColor" p-id="5454"></path><path d="M790.920363 797.616997a41.657749 41.657749 0 1 0 83.291405 0 41.657749 41.657749 0 0 0-83.291405 0z" fill="currentColor" p-id="5455"></path><path d="M860.141135 40.959036h-81.918073c0-23.68396-22.599751-40.959036-45.898214-40.959036H42.189181A42.573304 42.573304 0 0 0 0.001373 42.910614v852.285264S44.839471 1023.975906 118.686204 1023.975906h602.531517a248.163573 248.163573 0 0 1-115.239453-104.397355H126.034737s-43.537046-14.697066-43.537046-44.235759l503.89252-0.265029 0.192749 0.40959a243.899014 243.899014 0 0 1-12.046776-75.629656 244.525446 244.525446 0 0 1 200.602904-240.501823l2.409355-455.006706h40.959036l0.674619 450.983083a242.260653 242.260653 0 0 1 81.918073 14.45613V88.519705S894.37807 40.959036 860.141135 40.959036z" fill="currentColor" p-id="5456"></path><path d="M360.802296 993.377097l-8.649585-17.323263a94.350345 94.350345 0 0 0 7.637656 17.323263zM426.288567 851.779299h0.024093-0.024093zM426.31266 851.779299l17.250982-1.56608a96.711513 96.711513 0 0 0-17.250982 1.56608z" fill="currentColor" p-id="5457"></path></svg>
