<?xml version="1.0" standalone="no"?><!DOCTYPE svg PUBLIC "-//W3C//DTD SVG 1.1//EN" "http://www.w3.org/Graphics/SVG/1.1/DTD/svg11.dtd"><svg t="1698118944606" class="icon" viewBox="0 0 1024 1024" version="1.1" xmlns="http://www.w3.org/2000/svg" p-id="39722" width="128" height="128" xmlns:xlink="http://www.w3.org/1999/xlink"><path d="M128 192v640h768v-512h-410.026667l-128-128H128zM96 128H384l128 128h416a31.146667 31.146667 0 0 1 23.04 8.96c5.973333 6.016 8.96 13.696 8.96 23.04v576a31.146667 31.146667 0 0 1-8.96 23.04 31.146667 31.146667 0 0 1-23.04 8.96H96a31.146667 31.146667 0 0 1-23.04-8.96 31.146667 31.146667 0 0 1-8.96-23.04V160a31.146667 31.146667 0 0 1 8.96-23.04 31.146667 31.146667 0 0 1 23.04-8.96z m370.986667 448l-91.008-90.026667 46.037333-45.994666 90.026667 91.008 90.026666-91.008 45.994667 45.994666-91.008 90.026667 91.008 90.026667-46.037333 45.994666L512 621.013333l-89.984 91.008-46.037333-45.994666 91.008-90.026667z" fill="currentColor" fill-opacity=".96" p-id="39723"></path></svg>
