<svg t="1727081026974" class="icon" viewBox="0 0 1024 1024" version="1.1" xmlns="http://www.w3.org/2000/svg" p-id="5967" width="256" height="256"><path d="M626.504 375.563a26.383 26.383 0 0 1-25.985-26.724c0-73.919-58.339-134.02-129.983-134.02a26.383 26.383 0 0 1-25.985-26.725c0-14.783 11.656-26.838 25.985-26.838 71.644 0 129.983-60.101 129.983-133.963 0-14.784 11.656-26.781 25.985-26.781 14.386 0 25.986 11.997 25.986 26.781 0 73.862 58.338 133.963 129.983 133.963 14.328 0 25.985 11.998 25.985 26.782s-11.657 26.78-25.985 26.78c-71.645 0-129.983 60.16-129.983 133.964 0 14.784-11.6 26.781-25.986 26.781z m-62.319-187.525a186.779 186.779 0 0 1 62.32 64.252c15.352-26.27 36.845-48.332 62.375-64.252a186.73 186.73 0 0 1-62.376-64.253c-15.352 26.27-36.788 48.388-62.319 64.253zM106.63 536.308a26.383 26.383 0 0 1-25.985-26.725 26.383 26.383 0 0 0-25.985-26.838 26.383 26.383 0 0 1-25.986-26.781c0-14.784 11.657-26.781 25.986-26.781a26.383 26.383 0 0 0 25.985-26.838c0-14.784 11.656-26.725 25.985-26.725 14.386 0 26.042 11.94 26.042 26.725s11.6 26.838 25.985 26.838c14.33 0 25.986 11.94 25.986 26.724s-11.657 26.838-25.986 26.838a26.383 26.383 0 0 0-25.985 26.782c0 14.783-11.656 26.78-26.042 26.78z m865.473 318.248l-550.41-567.24a76.42 76.42 0 0 0-110.308 0l-30.42 31.444c-14.728 15.125-22.745 35.253-22.745 56.86 0 21.493 8.074 41.622 22.744 56.86l550.353 567.184a76.42 76.42 0 0 0 110.309 0l30.477-31.444c14.67-15.125 22.744-35.254 22.744-56.86 0-21.494-8.13-41.68-22.744-56.861zM342.657 334.738a25.587 25.587 0 0 1 36.789 0l74.771 77.102-53.278 50.606-74.885-77.046a27.407 27.407 0 0 1 0-37.869l16.49-12.737z m567.012 617.618a25.417 25.417 0 0 1-36.675 0L434.26 500.2l54.018-50.89 438.735 452.212a27.407 27.407 0 0 1 0 37.869l-17.343 12.964zM210.627 268.438a26.383 26.383 0 0 1-25.985-26.838c0-44.294-34.97-80.344-78.013-80.344a26.383 26.383 0 0 1-25.985-26.781c0-14.784 11.656-26.781 25.985-26.781 43.043 0 78.013-36.107 78.013-80.401 0-14.784 11.656-26.781 25.985-26.781s25.985 11.997 25.985 26.781c0 44.351 34.97 80.4 78.013 80.4 14.329 0 25.985 11.941 25.985 26.725s-11.656 26.838-25.985 26.838c-43.044 0-78.013 36.05-78.013 80.344 0 14.784-11.656 26.838-25.985 26.838z m-26.1-133.963c9.895 7.676 18.651 16.717 26.1 26.895a134.19 134.19 0 0 1 26.099-26.895 134.19 134.19 0 0 1-26.1-26.895 134.19 134.19 0 0 1-26.098 26.895z m26.1 669.76a26.383 26.383 0 0 1-25.985-26.782c0-44.351-34.97-80.4-78.013-80.4a26.383 26.383 0 0 1-25.985-26.725c0-14.784 11.656-26.838 25.985-26.838 43.043 0 78.013-36.05 78.013-80.4 0-14.785 11.656-26.725 25.985-26.725s25.985 11.94 25.985 26.724c0 44.351 34.97 80.4 78.013 80.4 14.329 0 25.985 11.998 25.985 26.782s-11.656 26.781-25.985 26.781c-43.044 0-78.013 36.05-78.013 80.401 0 14.784-11.656 26.781-25.985 26.781z m-26.1-133.964c9.895 7.676 18.651 16.717 26.1 26.895a134.19 134.19 0 0 1 26.099-26.895 134.19 134.19 0 0 1-26.1-26.895 134.19 134.19 0 0 1-26.098 26.895z" fill="currentColor" p-id="5968"></path></svg>