<?xml version="1.0" standalone="no"?><!DOCTYPE svg PUBLIC "-//W3C//DTD SVG 1.1//EN" "http://www.w3.org/Graphics/SVG/1.1/DTD/svg11.dtd"><svg t="1699515608998" class="icon" viewBox="0 0 1024 1024" version="1.1" xmlns="http://www.w3.org/2000/svg" p-id="4069" width="78" height="78" xmlns:xlink="http://www.w3.org/1999/xlink"><path d="M731.5456 214.4256c-68.8128-68.8128-160.5632-106.7008-257.8432-106.7008s-189.0304 37.888-258.048 106.7008c-142.1312 142.1312-142.1312 373.5552 0 515.6864 68.8128 68.8128 160.5632 106.7008 257.8432 106.7008s189.0304-37.888 257.8432-106.7008c142.336-142.1312 142.336-373.5552 0.2048-515.6864zM688.128 686.6944c-57.344 57.344-133.5296 88.8832-214.6304 88.8832s-157.2864-31.5392-214.6304-88.8832c-118.1696-118.1696-118.1696-310.6816 0.2048-428.8512 57.344-57.344 133.5296-88.8832 214.6304-88.8832s157.2864 31.5392 214.6304 88.8832c118.1696 118.3744 118.1696 310.6816-0.2048 428.8512z m232.448 190.8736l-113.8688-113.8688c-8.8064-8.8064-28.4672-13.5168-43.2128 0-13.9264 12.6976-8.8064 35.6352 0 44.6464l113.8688 113.8688c4.5056 4.5056 27.648 15.9744 44.2368-1.2288 13.7216-14.1312 7.9872-34.6112-1.024-43.4176z" fill="currentColor" p-id="4070"></path></svg>
