<?xml version="1.0" standalone="no"?><!DOCTYPE svg PUBLIC "-//W3C//DTD SVG 1.1//EN" "http://www.w3.org/Graphics/SVG/1.1/DTD/svg11.dtd"><svg t="1698119209705" class="icon" viewBox="0 0 1024 1024" version="1.1" xmlns="http://www.w3.org/2000/svg" p-id="49130" width="128" height="128" xmlns:xlink="http://www.w3.org/1999/xlink"><path d="M272.82 285.58c0 122.74 99.5 222.24 222.24 222.24s222.24-99.5 222.24-222.24S617.8 63.34 495.06 63.34s-222.24 99.5-222.24 222.24z" fill="currentColor" p-id="49131"></path><path d="M535.62 772.77c0-120.58 96.24-218.67 216.18-221.58a415.09 415.09 0 0 0-108.15-61.43 252.54 252.54 0 0 1-297.18 0C190.2 549.56 79.24 700.86 79.24 878.22v0.43A44.59 44.59 0 0 0 124 923.1h470.34a221 221 0 0 1-58.72-150.33z" fill="currentColor" p-id="49132"></path><path d="M936.4 732.54h-23.14a159.77 159.77 0 0 0-17.2-41.54l16.44-16.44a8 8 0 0 0 0-11.36L867 617.69a8 8 0 0 0-11.35 0l-16.44 16.44a157.78 157.78 0 0 0-41.53-17.19v-23.15a8 8 0 0 0-8-8H725.3a8 8 0 0 0-8 8v23.15a159.33 159.33 0 0 0-41.53 17.19l-16.44-16.44a8 8 0 0 0-11.35 0l-45.53 45.53a8 8 0 0 0 0 11.36L618.89 691a158.21 158.21 0 0 0-17.2 41.52h-23.14a8 8 0 0 0-8 8v64.34a8 8 0 0 0 8 8h23.14a159.63 159.63 0 0 0 17.2 41.52l-16.44 16.44a8 8 0 0 0 0 11.36L648 927.75a8 8 0 0 0 11.35 0l16.44-16.44a157.78 157.78 0 0 0 41.51 17.19v23.15a8 8 0 0 0 8 8h64.35a8 8 0 0 0 8-8V928.5a159.33 159.33 0 0 0 41.53-17.19l16.44 16.44a8 8 0 0 0 11.35 0l45.53-45.53a8 8 0 0 0 0-11.36l-16.44-16.44a158.21 158.21 0 0 0 17.2-41.52h23.14a8 8 0 0 0 8-8v-64.35a8 8 0 0 0-8-8.01zM757.31 857.13a84.36 84.36 0 1 1 84.36-84.36 84.32 84.32 0 0 1-84.36 84.36z" fill="currentColor" p-id="49133"></path></svg>
