<?xml version="1.0" encoding="UTF-8"?>
<!DOCTYPE svg PUBLIC "-//W3C//DTD SVG 1.1//EN" "http://www.w3.org/Graphics/SVG/1.1/DTD/svg11.dtd">
<svg xmlns="http://www.w3.org/2000/svg" version="1.1" width="150px" height="150px" style="shape-rendering:geometricPrecision; text-rendering:geometricPrecision; image-rendering:optimizeQuality; fill-rule:evenodd; clip-rule:evenodd" xmlns:xlink="http://www.w3.org/1999/xlink">
<g><path style="opacity:1" fill="#78c3a2" d="M 95.5,28.5 C 95.5,29.1667 95.5,29.8333 95.5,30.5C 91.4157,29.5729 87.4157,28.4062 83.5,27C 81.8839,26.3848 80.5505,25.3848 79.5,24C 68.891,21.7261 58.2244,21.2261 47.5,22.5C 53.4503,19.748 59.7836,18.9147 66.5,20C 76.5773,21.5268 86.244,24.3601 95.5,28.5 Z"/></g>
<g><path style="opacity:1" fill="#4fbf8d" d="M 95.5,30.5 C 98.4261,31.4608 101.426,32.1274 104.5,32.5C 104.414,33.4959 104.748,34.3292 105.5,35C 109.965,38.2286 114.965,40.3952 120.5,41.5C 124.234,44.2311 127.234,47.5644 129.5,51.5C 132.8,57.1985 134.467,63.3652 134.5,70C 133.573,76.531 131.907,82.031 129.5,86.5C 128.5,86.5 127.5,86.5 126.5,86.5C 126.5,87.5 126.5,88.5 126.5,89.5C 124.5,90.1667 122.5,90.8333 120.5,91.5C 120.5,93.1667 120.5,94.8333 120.5,96.5C 117.656,96.3426 115.989,97.676 115.5,100.5C 114.71,101.401 113.71,102.068 112.5,102.5C 108.118,103.97 103.785,105.637 99.5,107.5C 99.5,108.5 99.5,109.5 99.5,110.5C 98.0697,111.537 96.403,112.204 94.5,112.5C 90.7027,112.895 87.7027,114.562 85.5,117.5C 83.3155,119.585 80.6489,120.585 77.5,120.5C 74.0836,120.528 71.0836,121.528 68.5,123.5C 65.1337,123.212 61.8004,123.046 58.5,123C 57.6634,124.011 57.33,125.178 57.5,126.5C 50.6791,127.655 43.6791,127.821 36.5,127C 35.3066,125.905 33.9733,125.072 32.5,124.5C 31.7377,122.738 30.4044,121.738 28.5,121.5C 26.8333,120.5 25.5,119.167 24.5,117.5C 22.0404,110.954 19.8738,104.287 18,97.5C 17.6667,97.8333 17.3333,98.1667 17,98.5C 16.5002,89.8397 16.3336,81.1731 16.5,72.5C 16.2511,68.5422 16.9177,64.8756 18.5,61.5C 22.5789,56.0089 25.5789,50.0089 27.5,43.5C 27.5,42.8333 27.5,42.1667 27.5,41.5C 29.2624,40.7377 30.2624,39.4044 30.5,37.5C 31.9063,37.0269 32.573,36.0269 32.5,34.5C 32.8333,33.5 33.5,32.8333 34.5,32.5C 36.543,31.4206 37.8763,29.754 38.5,27.5C 41.2991,25.5975 44.2991,23.9308 47.5,22.5C 58.2244,21.2261 68.891,21.7261 79.5,24C 80.5505,25.3848 81.8839,26.3848 83.5,27C 87.4157,28.4062 91.4157,29.5729 95.5,30.5 Z"/></g>
<g><path style="opacity:0.831" fill="#e6f4ee" d="M 38.5,27.5 C 37.8763,29.754 36.543,31.4206 34.5,32.5C 34.6696,29.796 36.0029,28.1293 38.5,27.5 Z"/></g>
<g><path style="opacity:1" fill="#8dc9b2" d="M 95.5,28.5 C 98.9116,29.0749 101.912,30.4082 104.5,32.5C 101.426,32.1274 98.4261,31.4608 95.5,30.5C 95.5,29.8333 95.5,29.1667 95.5,28.5 Z"/></g>
<g><path style="opacity:0.553" fill="#c5e3d6" d="M 32.5,34.5 C 32.573,36.0269 31.9063,37.0269 30.5,37.5C 30.427,35.9731 31.0937,34.9731 32.5,34.5 Z"/></g>
<g><path style="opacity:0.91" fill="#b7ddcd" d="M 30.5,37.5 C 30.2624,39.4044 29.2624,40.7377 27.5,41.5C 27.7376,39.5956 28.7376,38.2623 30.5,37.5 Z"/></g>
<g><path style="opacity:1" fill="#84c6a6" d="M 104.5,32.5 C 109.25,34.3736 113.917,36.5403 118.5,39C 119.381,39.7083 120.047,40.5416 120.5,41.5C 114.965,40.3952 109.965,38.2286 105.5,35C 104.748,34.3292 104.414,33.4959 104.5,32.5 Z"/></g>
<g><path style="opacity:0.639" fill="#ddf0e6" d="M 27.5,41.5 C 27.5,42.1667 27.5,42.8333 27.5,43.5C 26.8333,43.8333 26.1667,44.1667 25.5,44.5C 25.427,42.9731 26.0937,41.9731 27.5,41.5 Z"/></g>
<g><path style="opacity:1" fill="#5ab794" d="M 68.5,75.5 C 67.8333,74.8333 67.1667,74.1667 66.5,73.5C 66.5,72.8333 66.5,72.1667 66.5,71.5C 66.0733,68.9902 65.4067,66.6568 64.5,64.5C 64.1667,63.5 63.5,62.8333 62.5,62.5C 63.0973,58.0097 61.4306,55.0097 57.5,53.5C 57.5858,52.5041 57.2524,51.6708 56.5,51C 54.1902,50.5034 51.8568,50.3367 49.5,50.5C 49.1412,52.7659 49.8078,54.5993 51.5,56C 50.8641,58.3938 50.8641,60.8938 51.5,63.5C 47.6116,59.6975 46.6116,55.0308 48.5,49.5C 49.8524,48.1038 51.5191,47.4371 53.5,47.5C 56.5666,48.5301 59.5666,49.8634 62.5,51.5C 64.9951,59.3482 66.9951,67.3482 68.5,75.5 Z"/></g>
<g><path style="opacity:1" fill="#54ac8d" d="M 96.5,51.5 C 92.8333,51.5 89.1667,51.5 85.5,51.5C 85.8176,54.4815 84.8176,56.8148 82.5,58.5C 82.0632,55.1934 82.7298,52.1934 84.5,49.5C 88.1294,48.7623 91.7961,48.9289 95.5,50C 96.056,50.3826 96.3893,50.8826 96.5,51.5 Z"/></g>
<g><path style="opacity:1" fill="#275852" d="M 96.5,51.5 C 96.5,52.5 96.5,53.5 96.5,54.5C 96.1667,54.5 95.8333,54.5 95.5,54.5C 94.5,54.5 93.5,54.5 92.5,54.5C 90.9582,53.6993 89.2915,53.366 87.5,53.5C 85.0614,58.7123 82.8947,64.0456 81,69.5C 80.0124,72.4245 79.3457,75.4245 79,78.5C 78.6174,79.056 78.1174,79.3893 77.5,79.5C 77.9926,77.1944 78.3259,74.861 78.5,72.5C 79.2341,71.2921 79.5674,69.9587 79.5,68.5C 81.2413,66.6051 82.2413,64.2718 82.5,61.5C 82.5,60.5 82.5,59.5 82.5,58.5C 84.8176,56.8148 85.8176,54.4815 85.5,51.5C 89.1667,51.5 92.8333,51.5 96.5,51.5 Z"/></g>
<g><path style="opacity:1" fill="#80c3a2" d="M 27.5,43.5 C 25.5789,50.0089 22.5789,56.0089 18.5,61.5C 20.0772,55.5272 22.4106,49.8605 25.5,44.5C 26.1667,44.1667 26.8333,43.8333 27.5,43.5 Z"/></g>
<g><path style="opacity:1" fill="#2f665b" d="M 57.5,53.5 C 55.2736,51.82 53.6069,52.1534 52.5,54.5C 52.5,57.5 52.5,60.5 52.5,63.5C 52.1667,63.5 51.8333,63.5 51.5,63.5C 50.8641,60.8938 50.8641,58.3938 51.5,56C 49.8078,54.5993 49.1412,52.7659 49.5,50.5C 51.8568,50.3367 54.1902,50.5034 56.5,51C 57.2524,51.6708 57.5858,52.5041 57.5,53.5 Z"/></g>
<g><path style="opacity:1" fill="#285353" d="M 57.5,53.5 C 61.4306,55.0097 63.0973,58.0097 62.5,62.5C 59.6789,60.7094 57.6789,58.2094 56.5,55C 55.2068,54.51 53.8734,54.3433 52.5,54.5C 53.6069,52.1534 55.2736,51.82 57.5,53.5 Z"/></g>
<g><path style="opacity:1" fill="#275c56" d="M 95.5,56.5 C 94.5721,59.4535 93.7388,62.4535 93,65.5C 92.6174,66.056 92.1174,66.3893 91.5,66.5C 91.3367,64.1432 91.5034,61.8098 92,59.5C 92.4224,57.5743 93.5891,56.5743 95.5,56.5 Z"/></g>
<g><path style="opacity:1" fill="#57a08b" d="M 82.5,61.5 C 82.2413,64.2718 81.2413,66.6051 79.5,68.5C 79.7587,65.7282 80.7587,63.3949 82.5,61.5 Z"/></g>
<g><path style="opacity:1" fill="#2c5856" d="M 53.5,63.5 C 57.0856,70.8572 60.0856,78.5239 62.5,86.5C 64.5429,89.4587 65.7095,92.7921 66,96.5C 68.1585,97.489 69.3252,99.1556 69.5,101.5C 68.8826,101.611 68.3826,101.944 68,102.5C 67.5831,101.244 66.7498,100.577 65.5,100.5C 64.7368,98.6316 63.7368,96.9649 62.5,95.5C 59.4944,84.8188 56.4944,74.1521 53.5,63.5 Z"/></g>
<g><path style="opacity:1" fill="#306c60" d="M 64.5,64.5 C 65.4067,66.6568 66.0733,68.9902 66.5,71.5C 65.8826,71.3893 65.3826,71.056 65,70.5C 64.5045,68.5273 64.3379,66.5273 64.5,64.5 Z"/></g>
<g><path style="opacity:1" fill="#58aa8f" d="M 95.5,54.5 C 95.8333,54.5 96.1667,54.5 96.5,54.5C 96.6641,57.1873 96.4974,59.854 96,62.5C 92.7156,70.3084 90.049,78.3084 88,86.5C 86.254,91.6638 83.754,96.3305 80.5,100.5C 80.6287,98.7839 80.962,97.1172 81.5,95.5C 83.2927,90.1259 85.2927,84.7926 87.5,79.5C 88.5166,75.1168 89.8499,70.7834 91.5,66.5C 92.1174,66.3893 92.6174,66.056 93,65.5C 93.7388,62.4535 94.5721,59.4535 95.5,56.5C 95.5,55.8333 95.5,55.1667 95.5,54.5 Z"/></g>
<g><path style="opacity:1" fill="#2b5858" d="M 66.5,73.5 C 67.1667,74.1667 67.8333,74.8333 68.5,75.5C 68.5,76.1667 68.5,76.8333 68.5,77.5C 68.4606,78.5832 68.1272,79.5832 67.5,80.5C 69.6363,81.9688 70.9697,83.9688 71.5,86.5C 71.5,87.1667 71.5,87.8333 71.5,88.5C 69.8523,87.1902 68.1856,85.8569 66.5,84.5C 66.6886,81.0149 66.6886,77.3482 66.5,73.5 Z"/></g>
<g><path style="opacity:1" fill="#374a5e" d="M 92.5,54.5 C 90.9773,62.6604 88.9773,70.6604 86.5,78.5C 85.5,78.5 84.5,78.5 83.5,78.5C 81.8979,84.0595 80.5646,89.7262 79.5,95.5C 78.0981,95.1345 77.0981,94.3012 76.5,93C 77.1476,91.5603 77.4809,90.0603 77.5,88.5C 77.5,85.5 77.5,82.5 77.5,79.5C 78.1174,79.3893 78.6174,79.056 79,78.5C 79.3457,75.4245 80.0124,72.4245 81,69.5C 82.8947,64.0456 85.0614,58.7123 87.5,53.5C 89.2915,53.366 90.9582,53.6993 92.5,54.5 Z"/></g>
<g><path style="opacity:1" fill="#67be98" d="M 129.5,51.5 C 136.119,58.8713 138.286,67.5379 136,77.5C 132.51,85.1606 127.344,91.4939 120.5,96.5C 120.5,94.8333 120.5,93.1667 120.5,91.5C 122.5,90.8333 124.5,90.1667 126.5,89.5C 126.5,88.5 126.5,87.5 126.5,86.5C 127.5,86.5 128.5,86.5 129.5,86.5C 131.907,82.031 133.573,76.531 134.5,70C 134.467,63.3652 132.8,57.1985 129.5,51.5 Z"/></g>
<g><path style="opacity:1" fill="#374a5d" d="M 52.5,54.5 C 53.8734,54.3433 55.2068,54.51 56.5,55C 57.6789,58.2094 59.6789,60.7094 62.5,62.5C 63.5,62.8333 64.1667,63.5 64.5,64.5C 64.3379,66.5273 64.5045,68.5273 65,70.5C 65.3826,71.056 65.8826,71.3893 66.5,71.5C 66.5,72.1667 66.5,72.8333 66.5,73.5C 66.6886,77.3482 66.6886,81.0149 66.5,84.5C 68.1856,85.8569 69.8523,87.1902 71.5,88.5C 71.5,89.1667 71.5,89.8333 71.5,90.5C 71.5,90.8333 71.5,91.1667 71.5,91.5C 73.2504,95.5867 71.917,97.0867 67.5,96C 66.8747,93.1997 66.208,90.3664 65.5,87.5C 64.5832,86.8728 63.5832,86.5394 62.5,86.5C 60.0856,78.5239 57.0856,70.8572 53.5,63.5C 53.1667,63.5 52.8333,63.5 52.5,63.5C 52.5,60.5 52.5,57.5 52.5,54.5 Z"/></g>
<g><path style="opacity:1" fill="#5db193" d="M 78.5,72.5 C 78.3259,74.861 77.9926,77.1944 77.5,79.5C 75.8872,81.4605 74.8872,83.7939 74.5,86.5C 73.5,86.5 72.5,86.5 71.5,86.5C 70.9697,83.9688 69.6363,81.9688 67.5,80.5C 68.1272,79.5832 68.4606,78.5832 68.5,77.5C 69.7255,78.937 70.7255,80.6036 71.5,82.5C 72.325,83.3857 73.325,83.719 74.5,83.5C 74.5181,79.1707 75.8514,75.504 78.5,72.5 Z"/></g>
<g><path style="opacity:1" fill="#275451" d="M 87.5,79.5 C 85.2927,84.7926 83.2927,90.1259 81.5,95.5C 81.3733,89.1944 83.3733,83.8611 87.5,79.5 Z"/></g>
<g><path style="opacity:1" fill="#5cb192" d="M 52.5,63.5 C 52.8333,63.5 53.1667,63.5 53.5,63.5C 56.4944,74.1521 59.4944,84.8188 62.5,95.5C 61.5,95.5 60.5,95.5 59.5,95.5C 59.0286,86.9454 56.862,78.9454 53,71.5C 52.5026,68.854 52.3359,66.1873 52.5,63.5 Z"/></g>
<g><path style="opacity:1" fill="#2e5455" d="M 77.5,79.5 C 77.5,82.5 77.5,85.5 77.5,88.5C 76.3579,90.9717 74.3579,91.9717 71.5,91.5C 71.5,91.1667 71.5,90.8333 71.5,90.5C 73.9118,90.3059 74.9118,88.9726 74.5,86.5C 74.8872,83.7939 75.8872,81.4605 77.5,79.5 Z"/></g>
<g><path style="opacity:1" fill="#344d5a" d="M 92.5,54.5 C 93.5,54.5 94.5,54.5 95.5,54.5C 95.5,55.1667 95.5,55.8333 95.5,56.5C 93.5891,56.5743 92.4224,57.5743 92,59.5C 91.5034,61.8098 91.3367,64.1432 91.5,66.5C 89.8499,70.7834 88.5166,75.1168 87.5,79.5C 83.3733,83.8611 81.3733,89.1944 81.5,95.5C 80.962,97.1172 80.6287,98.7839 80.5,100.5C 79.5418,102.302 78.8751,104.302 78.5,106.5C 76.1432,106.663 73.8098,106.497 71.5,106C 70.944,105.617 70.6107,105.117 70.5,104.5C 73.3382,102.694 73.0048,101.694 69.5,101.5C 69.3252,99.1556 68.1585,97.489 66,96.5C 65.7095,92.7921 64.5429,89.4587 62.5,86.5C 63.5832,86.5394 64.5832,86.8728 65.5,87.5C 66.208,90.3664 66.8747,93.1997 67.5,96C 71.917,97.0867 73.2504,95.5867 71.5,91.5C 74.3579,91.9717 76.3579,90.9717 77.5,88.5C 77.4809,90.0603 77.1476,91.5603 76.5,93C 77.0981,94.3012 78.0981,95.1345 79.5,95.5C 80.5646,89.7262 81.8979,84.0595 83.5,78.5C 84.5,78.5 85.5,78.5 86.5,78.5C 88.9773,70.6604 90.9773,62.6604 92.5,54.5 Z"/></g>
<g><path style="opacity:1" fill="#60918c" d="M 71.5,86.5 C 72.5,86.5 73.5,86.5 74.5,86.5C 74.9118,88.9726 73.9118,90.3059 71.5,90.5C 71.5,89.8333 71.5,89.1667 71.5,88.5C 71.5,87.8333 71.5,87.1667 71.5,86.5 Z"/></g>
<g><path style="opacity:1" fill="#71c09b" d="M 16.5,72.5 C 16.3336,81.1731 16.5002,89.8397 17,98.5C 17.3333,98.1667 17.6667,97.8333 18,97.5C 19.8738,104.287 22.0404,110.954 24.5,117.5C 21.8652,114.921 19.6985,111.921 18,108.5C 14.0308,97.3432 13.0308,86.0099 15,74.5C 15.2784,73.5842 15.7784,72.9175 16.5,72.5 Z"/></g>
<g><path style="opacity:0.945" fill="#98ceb5" d="M 120.5,96.5 C 119.415,98.5869 117.749,99.9202 115.5,100.5C 115.989,97.676 117.656,96.3426 120.5,96.5 Z"/></g>
<g><path style="opacity:1" fill="#89c6ab" d="M 112.5,102.5 C 108.677,105.916 104.343,108.582 99.5,110.5C 99.5,109.5 99.5,108.5 99.5,107.5C 103.785,105.637 108.118,103.97 112.5,102.5 Z"/></g>
<g><path style="opacity:1" fill="#58b391" d="M 62.5,95.5 C 63.7368,96.9649 64.7368,98.6316 65.5,100.5C 66.4552,102.746 67.1218,105.079 67.5,107.5C 71.3714,107.815 75.0381,107.482 78.5,106.5C 78.8751,104.302 79.5418,102.302 80.5,100.5C 81.6488,106.521 79.1488,109.855 73,110.5C 71.3313,109.834 69.8313,109.834 68.5,110.5C 63.0838,107.002 61.0838,102.002 62.5,95.5 Z"/></g>
<g><path style="opacity:1" fill="#2d6e5f" d="M 65.5,100.5 C 66.7498,100.577 67.5831,101.244 68,102.5C 68.3826,101.944 68.8826,101.611 69.5,101.5C 69.2627,102.791 69.596,103.791 70.5,104.5C 70.6107,105.117 70.944,105.617 71.5,106C 73.8098,106.497 76.1432,106.663 78.5,106.5C 75.0381,107.482 71.3714,107.815 67.5,107.5C 67.1218,105.079 66.4552,102.746 65.5,100.5 Z"/></g>
<g><path style="opacity:1" fill="#739ba2" d="M 69.5,101.5 C 73.0048,101.694 73.3382,102.694 70.5,104.5C 69.596,103.791 69.2627,102.791 69.5,101.5 Z"/></g>
<g><path style="opacity:1" fill="#8dc7ab" d="M 94.5,112.5 C 91.9922,114.924 88.9922,116.59 85.5,117.5C 87.7027,114.562 90.7027,112.895 94.5,112.5 Z"/></g>
<g><path style="opacity:1" fill="#93cab0" d="M 77.5,120.5 C 75.1024,122.974 72.1024,124.308 68.5,124.5C 68.5,124.167 68.5,123.833 68.5,123.5C 71.0836,121.528 74.0836,120.528 77.5,120.5 Z"/></g>
<g><path style="opacity:0.839" fill="#bde0d0" d="M 28.5,121.5 C 30.4044,121.738 31.7377,122.738 32.5,124.5C 30.5956,124.262 29.2623,123.262 28.5,121.5 Z"/></g>
<g><path style="opacity:1" fill="#67be96" d="M 68.5,123.5 C 68.5,123.833 68.5,124.167 68.5,124.5C 65.0019,125.917 61.3352,126.583 57.5,126.5C 57.33,125.178 57.6634,124.011 58.5,123C 61.8004,123.046 65.1337,123.212 68.5,123.5 Z"/></g>
</svg>
